<svg xmlns="http://www.w3.org/2000/svg" style="display:none">
<defs>
  <!-- 공통: 24px, stroke currentColor, 1.8, round. 채움 점은 개별 지정 -->
  <symbol id="i-logo" viewBox="0 0 24 24" fill="none" stroke="currentColor" stroke-width="1.8" stroke-linecap="round" stroke-linejoin="round">
    <line x1="12" y1="12" x2="6" y2="6"/><line x1="12" y1="12" x2="18" y2="8"/><line x1="12" y1="12" x2="9" y2="19"/>
    <circle cx="12" cy="12" r="2.6" fill="currentColor" stroke="none"/>
    <circle cx="6" cy="6" r="1.7" fill="currentColor" stroke="none"/>
    <circle cx="18" cy="8" r="1.7" fill="currentColor" stroke="none"/>
    <circle cx="9" cy="19" r="1.7" fill="currentColor" stroke="none"/>
  </symbol>
  <symbol id="i-search" viewBox="0 0 24 24" fill="none" stroke="currentColor" stroke-width="1.8" stroke-linecap="round" stroke-linejoin="round">
    <circle cx="11" cy="11" r="6.5"/><line x1="20" y1="20" x2="16" y2="16"/>
  </symbol>
  <symbol id="i-sun" viewBox="0 0 24 24" fill="none" stroke="currentColor" stroke-width="1.8" stroke-linecap="round" stroke-linejoin="round">
    <circle cx="12" cy="12" r="4"/>
    <line x1="12" y1="2.5" x2="12" y2="5"/><line x1="12" y1="19" x2="12" y2="21.5"/>
    <line x1="2.5" y1="12" x2="5" y2="12"/><line x1="19" y1="12" x2="21.5" y2="12"/>
    <line x1="5.6" y1="5.6" x2="7.3" y2="7.3"/><line x1="16.7" y1="16.7" x2="18.4" y2="18.4"/>
    <line x1="18.4" y1="5.6" x2="16.7" y2="7.3"/><line x1="7.3" y1="16.7" x2="5.6" y2="18.4"/>
  </symbol>
  <symbol id="i-moon" viewBox="0 0 24 24" fill="none" stroke="currentColor" stroke-width="1.8" stroke-linecap="round" stroke-linejoin="round">
    <path d="M20 14.5A8 8 0 0 1 9.5 4 7 7 0 1 0 20 14.5Z"/>
  </symbol>
  <symbol id="i-home" viewBox="0 0 24 24" fill="none" stroke="currentColor" stroke-width="1.8" stroke-linecap="round" stroke-linejoin="round">
    <path d="M5 11l7-6 7 6"/><path d="M6.5 10.5V19h11v-8.5"/>
  </symbol>
  <symbol id="i-arrow-left" viewBox="0 0 24 24" fill="none" stroke="currentColor" stroke-width="1.8" stroke-linecap="round" stroke-linejoin="round">
    <path d="M14 6l-6 6 6 6"/>
  </symbol>
  <symbol id="i-arrow-up" viewBox="0 0 24 24" fill="none" stroke="currentColor" stroke-width="1.8" stroke-linecap="round" stroke-linejoin="round">
    <path d="M6 14l6-6 6 6"/>
  </symbol>
  <symbol id="i-arrow-right" viewBox="0 0 24 24" fill="none" stroke="currentColor" stroke-width="1.8" stroke-linecap="round" stroke-linejoin="round">
    <path d="M10 6l6 6-6 6"/>
  </symbol>
  <symbol id="i-pill" viewBox="0 0 24 24" fill="none" stroke="currentColor" stroke-width="1.8" stroke-linecap="round" stroke-linejoin="round">
    <rect x="3" y="8.5" width="18" height="7" rx="3.5"/><line x1="12" y1="8.5" x2="12" y2="15.5"/>
  </symbol>
  <symbol id="i-bone" viewBox="0 0 24 24" fill="none" stroke="currentColor" stroke-width="1.8" stroke-linecap="round" stroke-linejoin="round">
    <path d="M16.4 8.6 7.6 15.4"/>
    <circle cx="15.2" cy="7.4" r="1.9"/><circle cx="17.6" cy="9.8" r="1.9"/>
    <circle cx="6.4" cy="14.2" r="1.9"/><circle cx="8.8" cy="16.6" r="1.9"/>
  </symbol>
  <symbol id="i-bolt" viewBox="0 0 24 24" fill="none" stroke="currentColor" stroke-width="1.8" stroke-linecap="round" stroke-linejoin="round">
    <path d="M13 3 5 13h6l-2 8 8-11h-6z"/>
  </symbol>
  <symbol id="i-stethoscope" viewBox="0 0 24 24" fill="none" stroke="currentColor" stroke-width="1.8" stroke-linecap="round" stroke-linejoin="round">
    <path d="M6 4v5a4 4 0 0 0 8 0V4"/><path d="M10 15v1a4 4 0 0 0 8 0v-2.2"/><circle cx="18" cy="11" r="2.1"/>
  </symbol>
  <symbol id="i-chart" viewBox="0 0 24 24" fill="none" stroke="currentColor" stroke-width="1.8" stroke-linecap="round" stroke-linejoin="round">
    <line x1="4" y1="20" x2="21" y2="20"/><line x1="6" y1="20" x2="6" y2="13"/><line x1="11" y1="20" x2="11" y2="7"/><line x1="16" y1="20" x2="16" y2="15"/><line x1="20" y1="20" x2="20" y2="10"/>
  </symbol>
  <symbol id="i-activity" viewBox="0 0 24 24" fill="none" stroke="currentColor" stroke-width="1.8" stroke-linecap="round" stroke-linejoin="round">
    <path d="M3 12h4l2.5-6 4 12 2.5-6H21"/>
  </symbol>
  <symbol id="i-alert" viewBox="0 0 24 24" fill="none" stroke="currentColor" stroke-width="1.8" stroke-linecap="round" stroke-linejoin="round">
    <path d="M12 4 21 19H3z"/><line x1="12" y1="10" x2="12" y2="14"/><circle cx="12" cy="16.6" r="0.6" fill="currentColor" stroke="none"/>
  </symbol>
  <symbol id="i-brush" viewBox="0 0 24 24" fill="none" stroke="currentColor" stroke-width="1.8" stroke-linecap="round" stroke-linejoin="round">
    <rect x="3.5" y="10" width="9.5" height="4" rx="1.6"/><line x1="13" y1="12" x2="20" y2="12"/>
    <line x1="6" y1="10" x2="6" y2="7"/><line x1="8.5" y1="10" x2="8.5" y2="7"/><line x1="11" y1="10" x2="11" y2="7"/>
  </symbol>
  <symbol id="i-pause" viewBox="0 0 24 24" fill="none" stroke="currentColor" stroke-width="1.8" stroke-linecap="round" stroke-linejoin="round">
    <line x1="9" y1="5" x2="9" y2="19"/><line x1="15" y1="5" x2="15" y2="19"/>
  </symbol>
  <symbol id="i-stop" viewBox="0 0 24 24" fill="none" stroke="currentColor" stroke-width="1.8" stroke-linecap="round" stroke-linejoin="round">
    <rect x="6" y="6" width="12" height="12" rx="2.5"/>
  </symbol>
  <symbol id="i-layers" viewBox="0 0 24 24" fill="none" stroke="currentColor" stroke-width="1.8" stroke-linecap="round" stroke-linejoin="round">
    <path d="M12 4 3 9l9 5 9-5z"/><path d="M3 14l9 5 9-5"/>
  </symbol>
  <symbol id="i-tool" viewBox="0 0 24 24" fill="none" stroke="currentColor" stroke-width="1.8" stroke-linecap="round" stroke-linejoin="round">
    <path d="M14 4l6 6-9 9-4 1 1-4z"/><line x1="13" y1="7" x2="17" y2="11"/>
  </symbol>
  <symbol id="i-flask" viewBox="0 0 24 24" fill="none" stroke="currentColor" stroke-width="1.8" stroke-linecap="round" stroke-linejoin="round">
    <path d="M9 3v6l-5 9a2 2 0 0 0 1.8 3h12.4A2 2 0 0 0 20 18l-5-9V3"/><line x1="8" y1="3" x2="16" y2="3"/><line x1="7.5" y1="14.5" x2="16.5" y2="14.5"/>
  </symbol>
  <symbol id="i-plus" viewBox="0 0 24 24" fill="none" stroke="currentColor" stroke-width="1.8" stroke-linecap="round" stroke-linejoin="round">
    <line x1="12" y1="5" x2="12" y2="19"/><line x1="5" y1="12" x2="19" y2="12"/>
  </symbol>
  <symbol id="i-refresh" viewBox="0 0 24 24" fill="none" stroke="currentColor" stroke-width="1.8" stroke-linecap="round" stroke-linejoin="round">
    <path d="M19 12a7 7 0 1 1-2-5"/><path d="M17 3v4h-4"/>
  </symbol>
  <symbol id="i-compass" viewBox="0 0 24 24" fill="none" stroke="currentColor" stroke-width="1.8" stroke-linecap="round" stroke-linejoin="round">
    <circle cx="12" cy="12" r="8"/><path d="M15.5 8.5 13 13l-4.5 2.5L11 11z"/>
  </symbol>
  <symbol id="i-shield" viewBox="0 0 24 24" fill="none" stroke="currentColor" stroke-width="1.8" stroke-linecap="round" stroke-linejoin="round">
    <path d="M12 3 5 6v5c0 4.5 3 7.5 7 9 4-1.5 7-4.5 7-9V6z"/>
  </symbol>
  <symbol id="i-baby" viewBox="0 0 24 24" fill="none" stroke="currentColor" stroke-width="1.8" stroke-linecap="round" stroke-linejoin="round">
    <circle cx="12" cy="7" r="3"/><path d="M7 20c0-3 2.3-5 5-5s5 2 5 5"/>
    <circle cx="10.9" cy="7" r="0.5" fill="currentColor" stroke="none"/><circle cx="13.1" cy="7" r="0.5" fill="currentColor" stroke="none"/>
  </symbol>
  <symbol id="i-map" viewBox="0 0 24 24" fill="none" stroke="currentColor" stroke-width="1.8" stroke-linecap="round" stroke-linejoin="round">
    <path d="M9 4 3 6v14l6-2 6 2 6-2V4l-6 2z"/><line x1="9" y1="4" x2="9" y2="18"/><line x1="15" y1="6" x2="15" y2="20"/>
  </symbol>
  <symbol id="i-siren" viewBox="0 0 24 24" fill="none" stroke="currentColor" stroke-width="1.8" stroke-linecap="round" stroke-linejoin="round">
    <path d="M7 17a5 5 0 0 1 10 0z"/><line x1="5" y1="17" x2="19" y2="17"/>
    <line x1="12" y1="8" x2="12" y2="5"/><line x1="7.5" y1="9.5" x2="5.7" y2="7.7"/><line x1="16.5" y1="9.5" x2="18.3" y2="7.7"/>
  </symbol>
  <symbol id="i-book" viewBox="0 0 24 24" fill="none" stroke="currentColor" stroke-width="1.8" stroke-linecap="round" stroke-linejoin="round">
    <path d="M5 5a2 2 0 0 1 2-2h11v16H7a2 2 0 0 0-2 2z"/><line x1="8" y1="7" x2="15" y2="7"/><line x1="8" y1="10" x2="15" y2="10"/>
  </symbol>
  <symbol id="i-clipboard" viewBox="0 0 24 24" fill="none" stroke="currentColor" stroke-width="1.8" stroke-linecap="round" stroke-linejoin="round">
    <rect x="6" y="5" width="12" height="16" rx="2"/><rect x="9" y="3" width="6" height="4" rx="1"/><line x1="9" y1="11" x2="15" y2="11"/><line x1="9" y1="14" x2="15" y2="14"/>
  </symbol>
  <symbol id="i-droplet" viewBox="0 0 24 24" fill="none" stroke="currentColor" stroke-width="1.8" stroke-linecap="round" stroke-linejoin="round">
    <path d="M12 4c3 4 6 7 6 10a6 6 0 0 1-12 0c0-3 3-6 6-10z"/>
  </symbol>
  <symbol id="i-star" viewBox="0 0 24 24" fill="none" stroke="currentColor" stroke-width="1.8" stroke-linecap="round" stroke-linejoin="round">
    <path d="M12 3.5l2.6 5.3 5.9.9-4.3 4.1 1 5.8L12 17.9 6.8 19.6l1-5.8L3.5 9.7l5.9-.9z"/>
  </symbol>
  <symbol id="i-pin" viewBox="0 0 24 24" fill="none" stroke="currentColor" stroke-width="1.8" stroke-linecap="round" stroke-linejoin="round">
    <path d="M12 21s7-6.5 7-11a7 7 0 0 0-14 0c0 4.5 7 11 7 11z"/><circle cx="12" cy="10" r="2.5"/>
  </symbol>
  <symbol id="i-virus" viewBox="0 0 24 24" fill="none" stroke="currentColor" stroke-width="1.8" stroke-linecap="round" stroke-linejoin="round">
    <circle cx="12" cy="12" r="5"/>
    <line x1="12" y1="2.5" x2="12" y2="7"/><line x1="12" y1="17" x2="12" y2="21.5"/>
    <line x1="2.5" y1="12" x2="7" y2="12"/><line x1="17" y1="12" x2="21.5" y2="12"/>
    <line x1="5.6" y1="5.6" x2="8.5" y2="8.5"/><line x1="15.5" y1="15.5" x2="18.4" y2="18.4"/>
    <line x1="18.4" y1="5.6" x2="15.5" y2="8.5"/><line x1="8.5" y1="15.5" x2="5.6" y2="18.4"/>
  </symbol>
</defs>
</svg>
